<svg width="156" height="160" viewBox="0 0 156 160" fill="none" xmlns="http://www.w3.org/2000/svg">
<g clip-path="url(#clip0_46_340)">
<path d="M123.279 120.13C111.957 123.266 90.5675 145.155 103.828 155.415C117.088 165.674 156.704 110.858 123.279 120.13Z" fill="#ECF2FA"/>
<path d="M126.342 116.813C78.3376 126.604 92.7367 151.586 60.7098 157.477C17.498 165.415 -2.76749 100.584 24.3228 60.5768C45.9719 28.6013 83.3175 18.5004 116.411 31.6366C163.154 50.1731 164.228 109.084 126.342 116.813Z" fill="#ECF2FA"/>
<path d="M104.505 37.7794V177.888C104.505 183.764 99.7273 188.544 93.8538 188.544H65.841V188.522H30.4918C28.1856 188.385 26.074 187.513 24.3949 186.136C22.0022 184.182 20.4744 181.211 20.4744 177.888V37.7794C20.4744 31.9034 25.2597 27.1233 31.126 27.1233H93.8465C99.7273 27.1305 104.505 31.9034 104.505 37.7794Z" fill="#101C3A"/>
<path d="M108.159 37.7794V177.888C108.159 183.764 103.381 188.536 97.5077 188.536H69.495V188.515H34.1385C31.8323 188.378 29.7208 187.505 28.0416 186.128C25.6489 184.174 24.1211 181.204 24.1211 177.88V37.7794C24.1211 31.9034 28.9064 27.1233 34.7727 27.1233H97.5005C103.381 27.1233 108.159 31.9106 108.159 37.7794Z" fill="#1D3557"/>
<path d="M105.788 37.7794V177.888C105.788 182.466 102.077 186.172 97.5004 186.172H34.7799C30.2035 186.172 26.4993 182.459 26.4993 177.888V37.7794C26.4993 33.2012 30.2108 29.4953 34.7799 29.4953H97.5004C102.077 29.4953 105.788 33.2084 105.788 37.7794Z" fill="#A8DADC"/>
<path d="M76.0171 30.8724H56.4867C56.0543 30.8724 55.7012 31.2257 55.7012 31.6583C55.7012 32.0981 56.0543 32.4513 56.4867 32.4513H76.0171C76.4495 32.4513 76.8026 32.0981 76.8026 31.6583C76.8098 31.2257 76.4567 30.8724 76.0171 30.8724Z" fill="#101C3A"/>
<path d="M36.3283 36.8606L33.7148 39.4767L34.0462 39.8079L36.6596 37.1919L36.3283 36.8606Z" fill="#101C3A"/>
<path d="M34.0458 36.8572L33.7146 37.1886L36.3288 39.8039L36.66 39.4725L34.0458 36.8572Z" fill="#101C3A"/>
<path d="M98.3508 38.9618H94.1565V39.4304H98.3508V38.9618Z" fill="#101C3A"/>
<path d="M78.4096 149.762H53.8778C49.5033 149.762 45.9575 146.215 45.9575 141.838C45.9575 137.462 49.5033 133.915 53.8778 133.915H78.4096C82.7841 133.915 86.3299 137.462 86.3299 141.838C86.3299 146.215 82.7841 149.762 78.4096 149.762Z" fill="#E63946"/>
<path d="M90.4881 122.581H41.7991C39.2551 122.581 37.1868 120.512 37.1868 117.967C37.1868 115.422 39.2551 113.353 41.7991 113.353H90.4881C93.0321 113.353 95.1004 115.422 95.1004 117.967C95.1004 120.512 93.0321 122.581 90.4881 122.581ZM41.7991 114.398C39.8317 114.398 38.2318 115.999 38.2318 117.967C38.2318 119.935 39.8317 121.536 41.7991 121.536H90.4881C92.4555 121.536 94.0554 119.935 94.0554 117.967C94.0554 115.999 92.4555 114.398 90.4881 114.398H41.7991Z" fill="white"/>
<path d="M90.4881 106.525H41.7991C39.2551 106.525 37.1868 104.456 37.1868 101.911C37.1868 99.3655 39.2551 97.2963 41.7991 97.2963H90.4881C93.0321 97.2963 95.1004 99.3655 95.1004 101.911C95.1004 104.456 93.0321 106.525 90.4881 106.525ZM41.7991 98.3417C39.8317 98.3417 38.2318 99.9423 38.2318 101.911C38.2318 103.879 39.8317 105.479 41.7991 105.479H90.4881C92.4555 105.479 94.0554 103.879 94.0554 101.911C94.0554 99.9423 92.4555 98.3417 90.4881 98.3417H41.7991Z" fill="white"/>
<path d="M54.0652 144.65V138.955H55.2255V143.684H58.1082V144.65H54.0652Z" fill="white"/>
<path d="M58.6992 141.81C58.6992 141.226 58.7857 140.735 58.9587 140.339C59.0884 140.05 59.2686 139.784 59.492 139.553C59.7154 139.322 59.9676 139.149 60.2343 139.034C60.5946 138.883 61.0054 138.803 61.4738 138.803C62.317 138.803 62.9945 139.063 63.5061 139.589C64.0106 140.115 64.2701 140.844 64.2701 141.781C64.2701 142.711 64.0178 143.432 63.5133 143.958C63.0089 144.485 62.3386 144.744 61.4954 144.744C60.645 144.744 59.9604 144.485 59.4631 143.965C58.9515 143.446 58.6992 142.725 58.6992 141.81ZM59.8883 141.774C59.8883 142.423 60.0397 142.92 60.3352 143.252C60.6378 143.591 61.0198 143.756 61.481 143.756C61.9423 143.756 62.3242 143.591 62.6197 143.259C62.9152 142.927 63.0665 142.43 63.0665 141.759C63.0665 141.103 62.9224 140.613 62.6341 140.288C62.3458 139.964 61.9639 139.805 61.4882 139.805C61.0126 139.805 60.6234 139.971 60.3352 140.296C60.0397 140.62 59.8883 141.11 59.8883 141.774Z" fill="white"/>
<path d="M67.8374 142.538V141.572H70.331V143.857C70.0859 144.095 69.74 144.297 69.2788 144.477C68.8175 144.658 68.3491 144.744 67.8807 144.744C67.2825 144.744 66.7564 144.622 66.3096 144.369C65.8628 144.117 65.5312 143.756 65.3006 143.288C65.0772 142.819 64.9619 142.307 64.9619 141.759C64.9619 141.161 65.0844 140.627 65.3367 140.166C65.5889 139.704 65.9564 139.344 66.4393 139.099C66.8068 138.911 67.2681 138.81 67.8158 138.81C68.5293 138.81 69.0842 138.962 69.4878 139.257C69.8913 139.553 70.1436 139.971 70.2589 140.497L69.1058 140.714C69.0265 140.433 68.8752 140.209 68.6518 140.043C68.4284 139.877 68.1473 139.798 67.8158 139.798C67.3113 139.798 66.9077 139.957 66.6051 140.281C66.3024 140.606 66.1582 141.081 66.1582 141.709C66.1582 142.394 66.3096 142.898 66.6123 143.244C66.9149 143.583 67.3113 143.756 67.8014 143.756C68.0464 143.756 68.2842 143.706 68.5293 143.612C68.7743 143.518 68.9833 143.403 69.1563 143.266V142.538H67.8374Z" fill="white"/>
<path d="M71.3687 144.65V138.911H72.5289V144.65H71.3687Z" fill="white"/>
<path d="M73.6387 144.65V138.911H74.7629L77.1123 142.747V138.911H78.1861V144.65H77.0259L74.7125 140.908V144.65H73.6387Z" fill="white"/>
<path d="M47.9249 119.647L47.1538 119.048C47.3988 118.774 47.651 118.508 47.9177 118.255C48.0258 118.154 48.0907 118.089 48.1195 118.061C48.033 118.046 47.788 117.988 47.3916 117.895C47.1033 117.823 46.9087 117.772 46.8223 117.736L47.125 116.835C47.5718 117.015 47.9681 117.217 48.3213 117.433C48.242 116.878 48.1988 116.424 48.1988 116.078H49.1068C49.1068 116.33 49.0636 116.784 48.9699 117.448C49.0347 117.419 49.1861 117.354 49.4095 117.246C49.7122 117.109 50.0005 116.986 50.2599 116.885L50.5338 117.808C50.159 117.895 49.7194 117.974 49.2221 118.061L49.8347 118.753C49.9572 118.89 50.0509 119.005 50.123 119.092L49.3446 119.611L48.6528 118.472C48.4366 118.839 48.1988 119.229 47.9249 119.647Z" fill="white"/>
<path d="M54.901 119.647L54.1298 119.048C54.3749 118.774 54.6271 118.508 54.8938 118.255C55.0019 118.154 55.0667 118.089 55.0956 118.061C55.0091 118.046 54.764 117.988 54.3677 117.895C54.0794 117.823 53.8848 117.772 53.7983 117.736L54.101 116.835C54.5478 117.015 54.9442 117.217 55.2973 117.433C55.2181 116.878 55.1748 116.424 55.1748 116.078H56.0829C56.0829 116.33 56.0396 116.784 55.946 117.448C56.0108 117.419 56.1622 117.354 56.3856 117.246C56.6955 117.109 56.9765 116.986 57.236 116.885L57.5098 117.808C57.1351 117.895 56.6955 117.974 56.1982 118.061L56.8108 118.753C56.9333 118.89 57.027 119.005 57.099 119.092L56.3207 119.611L55.6289 118.472C55.4055 118.839 55.1676 119.229 54.901 119.647Z" fill="white"/>
<path d="M61.8773 119.647L61.1062 119.048C61.3512 118.774 61.6034 118.508 61.8701 118.255C61.9782 118.154 62.0431 118.089 62.0719 118.061C61.9854 118.046 61.7404 117.988 61.344 117.895C61.0557 117.823 60.8611 117.772 60.7747 117.736L61.0773 116.835C61.5242 117.015 61.9205 117.217 62.2737 117.433C62.1944 116.878 62.1512 116.424 62.1512 116.078H63.0592C63.0592 116.33 63.016 116.784 62.9223 117.448C62.9871 117.419 63.1385 117.354 63.3619 117.246C63.6718 117.109 63.9528 116.986 64.2123 116.885L64.4861 117.808C64.1114 117.895 63.6718 117.974 63.1745 118.061L63.7871 118.753C63.9096 118.89 64.0033 119.005 64.0754 119.092L63.2754 119.611L62.5836 118.472C62.3818 118.839 62.1439 119.229 61.8773 119.647Z" fill="white"/>
<path d="M68.8463 119.647L68.0752 119.048C68.3202 118.774 68.5724 118.508 68.8391 118.255C68.9472 118.154 69.012 118.089 69.0409 118.061C68.9544 118.046 68.7094 117.988 68.313 117.895C68.0247 117.823 67.8301 117.772 67.7437 117.736L68.0463 116.835C68.4932 117.015 68.8895 117.217 69.2427 117.433C69.1634 116.878 69.1201 116.424 69.1201 116.078H70.0282C70.0282 116.33 69.985 116.784 69.8913 117.448C69.9561 117.419 70.1075 117.354 70.3309 117.246C70.6336 117.109 70.9218 116.986 71.1813 116.885L71.4551 117.808C71.0804 117.895 70.6408 117.974 70.1435 118.061L70.7561 118.753C70.8786 118.89 70.9723 119.005 71.0444 119.092L70.266 119.611L69.5742 118.472C69.3508 118.839 69.1129 119.229 68.8463 119.647Z" fill="white"/>
<path d="M75.8224 119.647L75.0512 119.048C75.2963 118.774 75.5485 118.508 75.8152 118.255C75.9233 118.154 75.9881 118.089 76.0169 118.061C75.9305 118.046 75.6854 117.988 75.2891 117.895C75.0008 117.823 74.8062 117.772 74.7197 117.736L75.0224 116.835C75.4692 117.015 75.8656 117.217 76.2187 117.433C76.1395 116.878 76.0962 116.424 76.0962 116.078H77.0043C77.0043 116.33 76.961 116.784 76.8673 117.448C76.9322 117.419 77.0835 117.354 77.307 117.246C77.6168 117.109 77.8979 116.986 78.1574 116.885L78.4312 117.808C78.0565 117.895 77.6168 117.974 77.1196 118.061L77.7322 118.753C77.8547 118.89 77.9484 119.005 78.0204 119.092L77.2421 119.611L76.5502 118.472C76.3268 118.839 76.089 119.229 75.8224 119.647Z" fill="white"/>
<path d="M82.7914 119.647L82.0202 119.048C82.2653 118.774 82.5175 118.508 82.7841 118.255C82.8922 118.154 82.9571 118.089 82.9859 118.061C82.8995 118.046 82.6544 117.988 82.2581 117.895C81.9698 117.823 81.7752 117.772 81.6887 117.736L81.9914 116.835C82.4382 117.015 82.8346 117.217 83.1877 117.433C83.1085 116.878 83.0652 116.424 83.0652 116.078H83.9733C83.9733 116.33 83.93 116.784 83.8363 117.448C83.9012 117.419 84.0525 117.354 84.276 117.246C84.5858 117.109 84.8669 116.986 85.1263 116.885L85.4002 117.808C85.0255 117.895 84.5858 117.974 84.0886 118.061L84.7012 118.753C84.8237 118.89 84.9174 119.005 84.9894 119.092L84.2111 119.611L83.5192 118.472C83.2958 118.839 83.058 119.229 82.7914 119.647Z" fill="white"/>
<path d="M80.9001 79.7677C89.0703 71.594 89.0702 58.342 80.9001 50.1684C72.7299 41.9948 59.4834 41.9948 51.3132 50.1684C43.143 58.342 43.143 71.594 51.3132 79.7677C59.4834 87.9413 72.7299 87.9413 80.9001 79.7677Z" fill="#1D3557"/>
<path d="M69.2427 52.3864H63.0376C62.2809 52.3864 61.6611 53.0065 61.6611 53.7635C61.6611 54.5278 62.2809 55.1406 63.0376 55.1406H69.2427C69.9994 55.1406 70.6192 54.5205 70.6192 53.7635C70.6192 52.9993 70.0066 52.3864 69.2427 52.3864Z" fill="#A8DADC"/>
<path d="M86.8273 100.721H45.2153V103.071H86.8273V100.721Z" fill="white"/>
<g opacity="0.3">
<path d="M108.159 64.571V177.549C103.316 177.426 99.0931 176.28 97.1689 173.18C96.1095 171.752 94.9348 152.689 94.0844 140.123C90.9134 141.896 86.8632 142.084 83.9516 139.293C79.6636 135.177 72.8388 118.097 70.6119 112.329C70.4894 112.336 70.3669 112.358 70.2299 112.358C66.0932 112.408 60.9764 108.147 63.506 107.325C63.506 107.325 61.3584 105.797 63.5781 104.477C63.5781 104.477 62.1295 101.939 64.6158 101.629C64.6158 101.629 63.8015 99.8126 65.041 99.2358L63.8519 89.7621C63.7438 88.8969 64.2555 88.1183 64.9834 88.0029L66.6482 87.765L74.5108 86.597C75.2458 86.4888 75.9305 87.0945 76.0386 87.9524L78.4601 107.282C78.5682 108.147 78.0637 108.926 77.3286 109.041L76.853 109.113C79.0294 111.709 82.2941 114.758 85.6092 117.707C90.272 108.435 98.7255 101.06 104.21 95.1622C104.34 95.018 104.484 94.8883 104.621 94.7513C105.313 93.8861 106.3 92.9705 107.424 92.1197L107.028 90.6056L106.127 87.1521C105.377 87.3036 104.678 87.354 104.123 87.2459C99.684 86.4023 99.1435 79.3007 99.9074 75.566C100.282 73.7203 100.815 71.1103 101.608 69.2286C100.83 66.7916 101.421 63.3165 106.934 64.4052C107.323 64.4845 107.741 64.5422 108.159 64.571Z" fill="#091022"/>
</g>
<path d="M76.1971 14.8594C76.6799 15.4867 76.5646 16.3879 75.9376 16.8709C75.3106 17.354 74.4098 17.2386 73.9269 16.6114C73.4441 15.9841 73.5594 15.0829 74.1864 14.5999C74.8134 14.1168 75.7142 14.2322 76.1971 14.8594Z" fill="#FC721A"/>
<path d="M114.768 35.5083L118.53 31.788L118.314 31.5429C118.004 31.2329 117.643 30.9445 117.197 30.6994C116.62 30.3821 115.993 30.1947 115.359 30.1298L114.768 35.5083Z" fill="#390D9F"/>
<path d="M74.9721 103.598L85.4219 102.033L82.8707 81.6511L72.4209 83.2084L74.9721 103.598Z" fill="white"/>
<path d="M72.5001 82.336L78.5466 81.4924L78.6619 82.4081L75.599 82.8623L73.4154 83.194C72.6803 83.3021 72.1758 84.088 72.2767 84.9459L74.3234 101.291C74.4315 102.149 75.1162 102.754 75.8513 102.646L81.0978 101.889L81.3356 103.814L75.3036 104.766C74.5685 104.874 73.8838 104.268 73.7757 103.41L71.3542 84.0808C71.2533 83.23 71.765 82.4441 72.5001 82.336Z" fill="#201030"/>
<path d="M72.0678 84.0015L74.4893 103.331C74.5902 104.153 75.2244 104.744 75.9234 104.701C75.9522 104.701 75.9811 104.694 76.0171 104.694L84.8382 103.374C85.5733 103.266 86.0778 102.48 85.9769 101.622L83.5554 82.2927C83.4473 81.4348 82.7626 80.8291 82.0276 80.9373L73.2065 82.2567C73.1776 82.2639 73.1416 82.2639 73.1128 82.2711C72.4281 82.4225 71.9669 83.1795 72.0678 84.0015ZM83.786 101.485L76.5648 102.559C75.8297 102.668 75.1451 102.062 75.037 101.204L72.9903 84.8522C72.8822 83.9942 73.3938 83.2084 74.1289 83.1002L76.3126 82.7758L76.4567 83.1219C76.5288 83.3382 76.7234 83.4751 76.918 83.4463L78.7485 83.1723C78.9431 83.1435 79.1016 82.956 79.116 82.7253L79.1665 82.3504L81.3501 82.026C82.0852 81.9178 82.7699 82.5234 82.878 83.3814L84.9247 99.7333C85.0328 100.591 84.5211 101.377 83.786 101.485Z" fill="#101C3A"/>
<path d="M82.712 100.743C82.712 100.743 83.3967 99.2214 82.4166 96.9863C81.4364 94.7513 81.1338 93.7635 81.2058 92.1557C81.2779 90.548 78.6834 91.6655 79.1086 95.5444C79.5338 99.4376 80.0311 101.471 82.712 100.743Z" fill="#F8A3A2"/>
<path d="M82.741 100.764L82.6761 100.728C82.6905 100.707 83.3391 99.1925 82.3806 97.008L82.4527 96.9791C83.4256 99.2069 82.7554 100.743 82.741 100.764Z" fill="#101C3A"/>
<path d="M126.443 67.491C127.38 63.1795 122.955 62.199 122.955 62.199C129.837 51.0382 136.568 59.964 137.613 64.3764C138.982 70.1442 136.691 80.3893 133.671 81.0526L133.008 80.1586L132.093 81.4708C130.32 82.2783 125.881 82.8984 124.727 82.4009C124.727 82.3937 126.385 67.7505 126.443 67.491Z" fill="#101C3A"/>
<path d="M112.959 78.9113L115.07 86.9719C115.683 87.628 118.847 86.6619 123.855 82.6604L120.987 75.566C120.987 75.566 118.032 77.1521 112.959 78.9113Z" fill="#F8A3A2"/>
<path d="M113.6 81.3627L114.537 84.9387C117.859 81.2617 117.564 79.2214 117.557 79.2286C115.661 80.6849 114.285 81.4348 113.6 81.3627Z" fill="#101C3A"/>
<path d="M111.633 81.579C114.148 82.0548 119.409 79.5386 120.872 77.4405C121.398 76.6907 122.89 63.5689 120.511 62.163C119.51 61.5718 112.591 61.4203 111.582 61.2185C109.262 60.7643 108.094 66.5682 107.417 69.8991C106.653 73.641 107.193 80.7354 111.633 81.579Z" fill="#F8A3A2"/>
<path d="M120.757 80.2956C119.935 79.7405 119.077 79.2358 118.205 78.7743C117.384 76.186 115.661 70.8291 115.006 69.517C114.357 68.212 111.669 74.7729 111.669 74.7729C110.71 70.5119 111.964 66.7772 110.307 65.5299C108.534 64.1961 106.948 57.2603 114.436 58.7383C118.494 59.5386 123.971 57.5343 126.594 63.1074C130.262 70.9012 120.396 77.9236 120.757 80.2956Z" fill="#101C3A"/>
<path d="M114.004 70.274C113.362 71.4348 113.788 72.8839 114.941 73.5256C116.094 74.1673 117.557 73.7419 118.191 72.5883C118.832 71.4275 118.407 69.9712 117.254 69.3367C116.094 68.695 114.638 69.1132 114.004 70.274Z" fill="#F8A3A2"/>
<path d="M115.813 73.1867C116.087 73.2372 116.382 73.2012 116.591 73.1435L116.468 72.7181C116.461 72.7181 115.741 72.9056 115.618 72.5451C115.582 72.4369 115.582 72.4369 115.755 72.3288C115.964 72.1918 116.281 71.9971 116.281 71.442C116.281 71.0671 116.13 70.8075 116.022 70.6273C115.87 70.3677 115.827 70.3028 116.187 70.0072C116.288 69.9207 116.389 69.8919 116.512 69.9135C116.512 69.9135 116.512 69.9135 116.519 69.9135C116.987 70.0072 117.521 70.8147 117.694 71.1247L118.083 70.9156C118.011 70.7859 117.362 69.6323 116.605 69.4881H116.598C116.353 69.4376 116.108 69.5097 115.906 69.6756C115.308 70.1803 115.424 70.4975 115.64 70.8652C115.741 71.031 115.842 71.204 115.842 71.4564C115.842 71.7592 115.705 71.8529 115.524 71.9683C115.344 72.0836 115.049 72.2711 115.207 72.7109C115.308 72.9921 115.546 73.1363 115.813 73.1867Z" fill="#101C3A"/>
<path d="M100.729 123.828C98.675 112.401 111.042 90.6922 111.705 89.6684C113.968 86.1788 121.744 81.7592 124.468 82.5523C137.829 86.4384 141.022 114.47 141.022 130.512C141.022 149.719 149.317 161.305 139.076 167.779C139.076 167.779 110.696 177.21 104.678 167.505C103.172 165.479 101.428 127.722 100.729 123.828Z" fill="#457B9D"/>
<path d="M118.818 126.121C112.173 136.489 103.835 137.902 102.134 138.717C101.514 136.373 101.075 125.696 101.349 123.554C107.957 117.426 121.477 103.006 126.911 97.7578C130.731 106.02 121.139 122.509 118.818 126.121Z" fill="#1D3557"/>
<path d="M126.846 142.372L126.998 141.954C125.765 141.507 124.569 140.937 123.445 140.267C122.673 139.805 121.902 139.272 121.52 138.479L121.124 138.666C121.556 139.567 122.428 140.173 123.221 140.642C124.367 141.334 125.592 141.911 126.846 142.372Z" fill="white"/>
<path d="M128.929 144.153L128.972 143.713C127.221 143.547 125.506 142.97 124 142.055L123.769 142.43C125.326 143.389 127.113 143.98 128.929 144.153Z" fill="white"/>
<path d="M82.4164 100.757C86.2216 107.441 103.994 120.663 105.471 123.172C110.22 131.218 97.9759 139.87 91.4609 133.627C86.2721 128.652 77.3933 104.744 77.3933 104.744L82.4164 100.757Z" fill="#F8A3A2"/>
<path d="M108.332 132.797C103.475 134.47 89.335 123.237 90.7259 118.169C94.0699 105.948 105.075 96.6402 111.719 89.4881C113.55 87.5198 116.317 86.7123 118.912 87.3973C128.043 89.8053 129.203 100.988 127.127 105.58C126.277 107.491 111.878 131.572 108.332 132.797Z" fill="#457B9D"/>
<path d="M102.667 121.968C102.797 121.918 116.05 116.885 120.129 109.164L119.74 108.955C115.741 116.525 102.646 121.5 102.516 121.55L102.667 121.968Z" fill="white"/>
<path d="M75.2314 93.6698C75.2314 93.6698 76.5935 93.7419 77.4943 93.85C78.3952 93.9582 78.9357 94.2682 79.678 95.5948C80.4275 96.9214 82.7048 99.6611 82.5463 101.146C82.3877 102.639 81.876 106.64 77.7321 106.683C73.5882 106.734 68.4786 102.473 71.0082 101.651C71.0082 101.651 68.8606 100.115 71.0803 98.8032C71.0803 98.8032 69.6317 96.2653 72.1108 95.9553C72.1253 95.9625 70.5181 92.3937 75.2314 93.6698Z" fill="#F8A3A2"/>
<path d="M72.1252 95.9625C72.7018 95.9697 73.2495 96.0923 73.7828 96.2365C74.3161 96.3879 74.8422 96.5681 75.3467 96.8637C74.7701 96.8565 74.2296 96.734 73.6891 96.5898C73.1486 96.4312 72.6153 96.2509 72.1252 95.9625Z" fill="#D17F80"/>
<path d="M71.0874 98.8176C71.8441 98.9257 72.5576 99.1204 73.2783 99.3223C73.9917 99.5314 74.698 99.7621 75.4043 100.036C75.0223 100.043 74.6475 100 74.2728 99.9351C73.898 99.8702 73.5377 99.7765 73.1774 99.6756C72.4567 99.4593 71.7504 99.1997 71.0874 98.8176Z" fill="#D17F80"/>
<path d="M70.9866 101.673C71.4838 101.875 71.9307 102.091 72.3919 102.3C72.6225 102.408 72.8531 102.502 73.0837 102.61C73.3144 102.718 73.5522 102.805 73.79 102.934C73.2567 102.985 72.7234 102.855 72.2406 102.639C72.0027 102.531 71.7649 102.401 71.5559 102.235C71.3469 102.069 71.1451 101.889 70.9866 101.673Z" fill="#D17F80"/>
<path d="M151.256 157.902H14.3054V158.94H151.256V157.902Z" fill="#131313"/>
<path fill-rule="evenodd" clip-rule="evenodd" d="M17.159 20.4975L13.3899 10.9661L23.5298 12.4658L17.159 20.4975Z" fill="#457B9D"/>
<path d="M17.0078 18.5436L13.1089 8.6734L13.2891 8.70224L23.602 10.2307L17.0078 18.5436ZM13.4332 8.93295L17.0654 18.1327L23.2128 10.3821L13.4332 8.93295Z" fill="#101C3A"/>
<path d="M8.32378 54.6215L8.35982 54.672L12.2875 51.5573L7.72562 49.7477L7.61752 49.9784C7.03377 51.478 7.24997 53.2516 8.32378 54.6215Z" fill="#457B9D"/>
<path d="M2.42857 28.7455C2.27002 29.0844 1.87364 29.2286 1.53492 29.0699C1.19621 28.9113 1.05207 28.5148 1.21062 28.1759C1.36917 27.8371 1.76554 27.6929 2.10426 27.8515C2.43577 28.0101 2.57991 28.4066 2.42857 28.7455Z" fill="#FC721A"/>
<path d="M97.558 20.1442C97.3994 20.4831 97.003 20.6273 96.6643 20.4687C96.3256 20.31 96.1815 19.9135 96.34 19.5746C96.4986 19.2358 96.8949 19.0916 97.2336 19.2502C97.5724 19.4088 97.7165 19.8054 97.558 20.1442Z" fill="#425FEC"/>
<path d="M53.3949 3.02812C53.2363 3.36699 52.84 3.51118 52.5012 3.35257C52.1625 3.19395 52.0184 2.79741 52.1769 2.45855C52.3355 2.11969 52.7319 1.97549 53.0706 2.13411C53.4093 2.29272 53.5534 2.68926 53.3949 3.02812Z" fill="#425FEC"/>
<path d="M110.602 3.02812C110.444 3.36699 110.047 3.51118 109.709 3.35257C109.37 3.19395 109.226 2.79741 109.384 2.45855C109.543 2.11969 109.939 1.97549 110.278 2.13411C110.61 2.29272 110.754 2.68926 110.602 3.02812Z" fill="#390D9F"/>
<path d="M38.8733 19.0844C38.5562 19.7549 37.7635 20.0433 37.0861 19.7332C36.4158 19.416 36.1276 18.6229 36.4374 17.9452C36.7545 17.2747 37.5473 16.9863 38.2247 17.2963C38.895 17.6136 39.1904 18.4138 38.8733 19.0844Z" fill="#390D9F"/>
</g>
<defs>
<clipPath id="clip0_46_340">
<rect width="155.119" height="160" fill="white"/>
</clipPath>
</defs>
</svg>
