<svg width="274" height="37" viewBox="0 0 274 37" fill="none" xmlns="http://www.w3.org/2000/svg">
<path d="M21.7245 19.8755L0.337342 14.0673L4.47603 36.7874L22.4413 23.8108L21.7245 19.8755ZM273.814 4.37864L251.066 0.393664L258.989 22.0862L273.814 4.37864ZM20.4871 24.1667C45.3737 19.4869 75.2506 13.7262 104.75 12.6348L104.602 8.63757C74.7506 9.74197 44.5718 15.5676 19.7479 20.2356L20.4871 24.1667ZM104.75 12.6348C127.844 11.7804 150.2 13.2851 170.085 14.8922C189.895 16.4931 207.406 18.2137 220.553 17.7273L220.405 13.73C207.564 14.2051 190.393 12.5204 170.407 10.9052C150.498 9.29616 127.946 7.77393 104.602 8.63757L104.75 12.6348ZM220.553 17.7273C234.505 17.2111 247.536 14.9876 257.399 12.4921L256.417 8.61429C246.795 11.049 234.044 13.2254 220.405 13.73L220.553 17.7273Z" fill="#E63946"/>
</svg>
